kinematics
version=1
nRows=11
nColumns=34
inDegrees=yes
endheader
time	pelvis_tilt	pelvis_list	pelvis_rotation	pelvis_tx	pelvis_ty	pelvis_tz	hip_flexion_r	hip_adduction_r	hip_rotation_r	knee_angle_r	ankle_angle_r	subtalar_angle_r	mtp_angle_r	hip_flexion_l	hip_adduction_l	hip_rotation_l	knee_angle_l	ankle_angle_l	subtalar_angle_l	mtp_angle_l	lumbar_extension	lumbar_bending	lumbar_rotation	arm_flex_r	arm_add_r	arm_rot_r	elbow_flex_r	pro_sup_r	arm_flex_l	arm_add_l	arm_rot_l	elbow_flex_l	pro_sup_l
23.841667	-11.719500	4.583204	-4.371401	0.085093	0.872533	0.084684	-1.327844	-4.614403	-2.080603	41.891507	-20.001207	-10.071737	0.000000	33.163874	5.743126	1.387669	16.233948	-0.157810	-1.482256	0.000000	-0.316922	-8.661663	7.535366	14.482157	-11.186689	13.510550	94.246524	95.019582	-28.318540	-12.604686	-15.519947	95.262854	100.700271
23.850000	-11.168419	4.414998	-4.330378	0.088017	0.870093	0.085288	-0.641375	-4.713478	-2.094385	46.664269	-19.935927	-12.919131	0.000000	31.937466	5.589691	2.063115	15.700003	-0.406906	-0.916289	0.000000	-0.579784	-8.683868	7.514021	13.092132	-10.873424	13.311589	92.499604	94.893208	-27.634222	-12.890614	-16.318436	95.728737	100.745418
23.858333	-10.642583	4.315159	-4.297713	0.090653	0.867373	0.085634	0.139212	-4.895297	-2.117915	51.428967	-19.969702	-15.805783	0.000000	30.701232	5.515324	2.623744	15.468981	-0.653878	-0.637979	0.000000	-0.778284	-8.745719	7.443059	11.551784	-10.465226	13.004400	90.567419	94.752332	-26.886510	-13.269651	-16.921190	96.312028	100.811336
23.866667	-10.137184	4.291242	-4.255990	0.092932	0.864490	0.085766	1.038921	-5.203862	-2.217883	56.175634	-19.986267	-18.601774	0.000000	29.467749	5.559966	3.087127	15.548169	-0.767314	-0.653316	0.000000	-0.947216	-8.857815	7.317580	9.851717	-9.993954	12.567414	88.488446	94.598267	-26.093530	-13.734885	-17.288454	97.015361	100.900098
23.875000	-9.663226	4.351245	-4.146711	0.094816	0.861332	0.085561	2.046024	-5.689050	-2.478776	60.892900	-19.906894	-21.169751	0.000000	28.265455	5.787979	3.493896	15.946928	-0.596957	-0.982503	0.000000	-1.124917	-9.029289	7.066572	8.019905	-9.524794	12.012158	86.368846	94.446414	-25.247878	-14.299230	-17.356865	97.866164	101.002399
23.883333	-9.240356	4.521563	-4.027815	0.096122	0.857643	0.085164	3.217882	-6.349259	-2.764307	65.563821	-19.748663	-23.499476	0.000000	27.132623	6.201886	3.781690	16.679324	-0.024621	-1.573740	0.000000	-1.297974	-9.298325	6.729618	6.119494	-8.994708	11.209624	84.183273	94.275541	-24.376379	-14.954887	-17.147003	98.884621	101.145198
23.891667	-8.871027	4.791014	-3.838405	0.096928	0.853449	0.084504	4.496447	-7.135240	-3.080582	70.084211	-19.461147	-25.425530	0.000000	26.106598	6.830955	4.017610	17.764647	0.971322	-2.407241	0.000000	-1.482845	-9.666424	6.212288	4.229037	-8.492357	10.365671	81.967251	94.112445	-23.508549	-15.654366	-16.774412	100.135873	101.283639
23.900000	-8.575721	5.156967	-3.616837	0.097408	0.849004	0.083693	5.907503	-8.006026	-3.344784	74.453834	-18.957068	-26.782639	0.000000	25.153785	7.657200	4.174575	19.116873	2.395896	-3.487198	0.000000	-1.635093	-10.105387	5.590184	2.331199	-7.965659	9.333390	79.802802	93.934339	-22.572077	-16.511594	-16.106675	101.464715	101.478605
23.908333	-8.362869	5.564966	-3.333611	0.097608	0.844559	0.082738	7.416169	-8.875016	-3.525598	78.622217	-18.297792	-27.521116	0.000000	24.246814	8.611034	4.300120	20.657410	4.215056	-4.628175	0.000000	-1.745039	-10.565380	5.036318	0.294373	-7.400553	7.936825	77.840528	93.736474	-21.219517	-17.556845	-14.822894	102.766426	101.866380
23.916667	-8.172593	5.950986	-3.031559	0.097525	0.840437	0.081588	8.983069	-9.641388	-3.545905	82.553066	-17.638845	-27.823726	0.000000	23.279784	9.607582	4.469289	22.281352	6.345397	-5.815965	0.000000	-1.892457	-10.945899	4.403848	-1.729376	-6.914654	6.514118	76.228032	93.555562	-19.553261	-18.574597	-13.372736	103.885931	102.337058
23.925000	-8.057121	6.212370	-2.663514	0.097223	0.837017	0.080382	10.654425	-10.158277	-3.418644	86.115524	-16.989715	-27.687569	0.000000	22.254810	10.503838	4.765094	23.836462	8.568562	-6.881884	0.000000	-2.044178	-11.200145	3.520240	-3.609600	-6.555308	5.314607	74.727550	93.414999	-17.774269	-19.520337	-11.847733	105.196026	102.807538
